<?xml version="1.0" encoding="utf-8"?>
<!-- Generator: Adobe Illustrator 21.0.2, SVG Export Plug-In . SVG Version: 6.00 Build 0)  -->
<svg version="1.1" id="Layer_1" xmlns="http://www.w3.org/2000/svg" xmlns:xlink="http://www.w3.org/1999/xlink" x="0px" y="0px"
	 viewBox="0 0 1366 768" style="enable-background:new 0 0 1366 768;" xml:space="preserve">
<style type="text/css">
	.st0{fill:#FFFFFF;}
	.st1{font-family:'HalloweenPartySt';}
	.st2{font-size:350px;}
	.st3{fill:none;stroke:#FFFFFF;stroke-width:3;stroke-miterlimit:10;}
	.st4{fill:none;stroke:#FFFFFF;stroke-width:2;stroke-miterlimit:10;}
</style>
<text transform="matrix(1 0 0 1 227.043 462.7109)" class="st0 st1 st2">GOOGLE</text>
<line class="st3" x1="759.5" y1="463" x2="759.5" y2="600"/>
<path class="st0" d="M774,612.5c0,8-6,8.5-14,8.5s-15,0-15-8s6.5-15,14.5-15S774,604.5,774,612.5z"/>
<path class="st0" d="M768,629c0,4.5-3.8,5-8,5c-4.8,0-8.6-1.4-8-6c0.5-3.9,4-7,8-7C764.3,621,768,624.6,768,629z"/>
<path class="st4" d="M753,627c-0.8,0.6-5.4,4-5,9.1c0.3,4.4,4,7.2,5,7.9"/>
<path class="st4" d="M754.6,624.3c-1.2-0.6-8-3.7-13.8,0c-4.9,3.2-5.8,9.2-6,10.8"/>
<path class="st4" d="M747.7,608.6c-1.3-0.6-8.7-4-14.9,0c-5.3,3.4-6.3,9.9-6.5,11.7"/>
<path class="st4" d="M754.3,612c-0.2-2-1.7-13.7-11.3-18.3c-8.2-3.9-17-0.1-19.2,0.9"/>
<path class="st4" d="M792.1,590.9c-2-0.4-13.5-2.8-20.9,5c-6.3,6.5-5.5,16-5.2,18.5"/>
<path class="st4" d="M792.9,624.6c-0.1-1.4-1-9.5-7.6-12.8c-5.6-2.8-11.7-0.3-13.3,0.4"/>
<path class="st4" d="M785.2,635.3c-0.1-1.3-1.1-8.8-7.3-11.7c-5.3-2.5-10.9-0.1-12.4,0.6"/>
<path class="st4" d="M765.9,643c0.8-0.6,5.4-3.9,5.1-9.1c-0.3-4.4-3.9-7.2-4.9-7.9"/>
<line class="st4" x1="1032" y1="356" x2="1085" y2="282"/>
<line class="st4" x1="1032.3" y1="355.2" x2="1105" y2="283"/>
<line class="st4" x1="1034" y1="358" x2="1070" y2="263"/>
<line class="st4" x1="1036" y1="361.3" x2="1036" y2="259.7"/>
<path class="st4" d="M1036,297c-0.3,0.2-1.9,1.3-4,1c-2.7-0.4-3.9-2.8-4-3"/>
<path class="st4" d="M1036,297c1.6,1.2,5.1,3.3,10,4c4.5,0.6,8.1-0.4,10-1"/>
<path class="st4" d="M1056,300c1,0.8,3.4,2.6,7,3c4.6,0.6,8-1.4,9-2"/>
<path class="st4" d="M1072,301c0.7,0.8,2,2.1,4,3c3.7,1.6,7.2,0.3,8,0"/>
<path class="st4" d="M1029,307c0.3,1.6,1.5,2.8,3,3c1.8,0.2,3.6-1,4-3"/>
<path class="st4" d="M1036,307c0.4,0.6,2.6,4.1,7,5c5.6,1.2,9.7-2.7,10-3"/>
<path class="st4" d="M1053,309c0.4,0.5,2.1,2.4,5,3c3.1,0.6,5.4-0.7,6-1"/>
<path class="st4" d="M1064,311c0.1,0.4,0.7,2.8,3,4c2.2,1.1,5,0.8,7-1"/>
<path class="st4" d="M1029,319c0.1,0.2,1.1,1.8,3,2c1.6,0.2,3.1-0.6,4-2"/>
<path class="st4" d="M1036,319c0.4,0.4,2.4,2.8,6,3c3.3,0.2,5.5-1.6,6-2"/>
<path class="st4" d="M1048,320c0.1,0.3,0.9,2.2,3,3c1.7,0.6,3.6,0.2,5-1"/>
<path class="st4" d="M1056,322c0.1,0.3,0.9,2.2,3,3c1.9,0.8,3.6,0.1,4,0"/>
<path class="st4" d="M1030,329c0.5,1.2,1.7,2,3,2s2.5-0.8,3-2"/>
<path class="st4" d="M1036,329c0.1,0.2,1.3,2.6,4,3c2.1,0.3,3.7-0.8,4-1"/>
<path class="st4" d="M1044,331c0,0.1,0.5,1.6,2,2c1.1,0.3,2.3-0.1,3-1"/>
<path class="st4" d="M1049,332c0,0.1-0.2,2,1,3s3.6,0.8,5-1"/>
<path class="st4" d="M1031,338c0.3,1,1,1.8,2,2c1.2,0.2,2.6-0.6,3-2"/>
<path class="st4" d="M1036,338c0,0.1,0.5,1.6,2,2c1.1,0.3,2.3-0.1,3-1"/>
<path class="st4" d="M1041,339c-0.2,1.1,0.2,2.3,1,3c1.1,0.9,2.8,0.9,4,0"/>
</svg>
